<svg xmlns="http://www.w3.org/2000/svg" viewBox="0 0 64 64" width="64" height="64">
  <rect x="10" y="8" width="36" height="48" rx="4" ry="4" fill="#4a2f17" stroke="#e2d3b5" stroke-width="2"/>
  <path d="M46 12h4a4 4 0 0 1 4 4v36a4 4 0 0 0-4-4h-4V12z" fill="#6b4523" stroke="#e2d3b5" stroke-width="2"/>
  <line x1="18" y1="20" x2="38" y2="20" stroke="#e2d3b5" stroke-width="2"/>
  <line x1="18" y1="28" x2="38" y2="28" stroke="#e2d3b5" stroke-width="2"/>
  <line x1="18" y1="36" x2="32" y2="36" stroke="#e2d3b5" stroke-width="2"/>
  <path d="M26 20v16" stroke="#e2d3b5" stroke-width="2"/>
  <path d="M30 20v16" stroke="#e2d3b5" stroke-width="2"/>
  <path d="M22 44c4-2 8-2 12 0" stroke="#e2d3b5" stroke-width="2" fill="none"/>
  <path d="M22 48c4-2 8-2 12 0" stroke="#e2d3b5" stroke-width="2" fill="none"/>
</svg>
